<svg width="650" height="388" viewBox="0 0 650 388" fill="none" xmlns="http://www.w3.org/2000/svg">
<g clip-path="url(#clip0_941_52070)">
<rect width="650" height="388" fill="white"/>
<rect width="650.001" height="392.6" fill="#FBD0FF"/>
<circle cx="169.904" cy="261.339" r="86.629" transform="rotate(15 169.904 261.339)" fill="#473571"/>
<path d="M146.381 237.347L143.292 248.873L149.999 250.67C154.421 251.855 157.369 250.195 158.301 246.718C159.259 243.14 157.708 240.382 153.088 239.144L146.381 237.347ZM142.52 251.755L139.072 264.623L147.27 266.819C151.791 268.031 154.729 266.209 155.807 262.184C156.899 258.11 154.941 255.083 150.718 253.951L142.52 251.755ZM146.494 269.913L136.557 267.25C135.663 267.011 135.068 266.053 135.321 265.109L143.375 235.05C143.628 234.106 144.622 233.574 145.517 233.814L153.963 236.077C160.968 237.954 163.166 242.27 161.729 247.636C160.85 250.915 158.094 253.052 155.099 253.102C158.436 254.955 160.526 258.284 159.235 263.103C157.691 268.866 153.052 271.67 146.494 269.913ZM174.71 243.02L166.443 273.874C166.203 274.768 165.245 275.363 164.301 275.11C163.357 274.857 162.824 273.863 163.064 272.968L171.331 242.115C171.571 241.221 172.529 240.625 173.473 240.878C174.417 241.131 174.949 242.126 174.71 243.02ZM185.535 247.838L178.227 275.114L183.543 276.539C190.946 278.522 196.345 276.455 199.115 266.12C201.857 255.886 198.254 251.246 190.851 249.262L185.535 247.838ZM184.671 244.305L191.677 246.182C201.166 248.725 205.831 254.767 202.543 267.039C199.254 279.311 192.207 282.162 182.717 279.619L175.712 277.742C174.768 277.489 174.223 276.544 174.476 275.6L182.53 245.542C182.783 244.598 183.728 244.052 184.671 244.305Z" fill="#FBD0FF"/>
<line x1="149.013" y1="344.023" x2="88.7561" y2="568.906" stroke="#473571" stroke-width="2.4375"/>
<line x1="503.744" y1="352.603" x2="564.001" y2="577.485" stroke="#473571" stroke-width="2.4375"/>
<circle cx="480.501" cy="270.548" r="86.629" transform="rotate(-15 480.501 270.548)" fill="#FDF7D3"/>
<path d="M448.134 261.534L451.223 273.061L457.93 271.264C462.352 270.079 464.075 267.168 463.143 263.69C462.184 260.113 459.462 258.499 454.842 259.737L448.134 261.534ZM451.995 275.943L455.443 288.811L463.641 286.614C468.162 285.403 469.795 282.356 468.717 278.331C467.625 274.257 464.416 272.614 460.193 273.746L451.995 275.943ZM464.516 289.681L454.579 292.344C453.685 292.583 452.69 292.051 452.437 291.107L444.383 261.049C444.13 260.105 444.725 259.146 445.62 258.907L454.066 256.644C461.071 254.766 465.133 257.406 466.571 262.771C467.45 266.051 466.131 269.279 463.562 270.82C467.379 270.755 470.853 272.593 472.145 277.413C473.689 283.176 471.074 287.924 464.516 289.681ZM475.505 252.283L483.772 283.137C484.012 284.031 483.479 285.026 482.535 285.279C481.591 285.532 480.633 284.936 480.394 284.042L472.126 253.189C471.887 252.294 472.419 251.3 473.363 251.047C474.307 250.794 475.265 251.389 475.505 252.283ZM487.289 251.043L494.598 278.319L499.914 276.895C507.317 274.911 510.959 270.421 508.19 260.086C505.448 249.852 500.008 247.635 492.605 249.618L487.289 251.043ZM484.774 248.415L491.78 246.538C501.269 243.995 508.33 246.896 511.618 259.168C514.906 271.44 510.229 277.432 500.739 279.975L493.734 281.852C492.79 282.105 491.845 281.559 491.592 280.615L483.538 250.557C483.285 249.613 483.83 248.668 484.774 248.415Z" fill="#4642FF"/>
<line x1="310.801" y1="212.205" x2="310.801" y2="445.021" stroke="#473571" stroke-width="2.4375"/>
<circle cx="309.578" cy="126.928" r="86.629" fill="#4642FF"/>
<path d="M280.644 109.845V121.778H287.588C292.165 121.778 294.583 119.412 294.583 115.811C294.583 112.108 292.371 109.845 287.588 109.845H280.644ZM280.644 124.761V138.083H289.131C293.811 138.083 296.177 135.563 296.177 131.396C296.177 127.179 293.503 124.761 289.131 124.761H280.644ZM289.182 141.272H278.895C277.969 141.272 277.146 140.5 277.146 139.523V108.404C277.146 107.427 277.969 106.656 278.895 106.656H287.639C294.892 106.656 298.132 110.256 298.132 115.811C298.132 119.206 296.023 121.983 293.143 122.806C296.846 123.732 299.727 126.407 299.727 131.396C299.727 137.363 295.972 141.272 289.182 141.272ZM309.476 107.993V139.935C309.476 140.86 308.705 141.683 307.727 141.683C306.75 141.683 305.978 140.86 305.978 139.935V107.993C305.978 107.067 306.75 106.244 307.727 106.244C308.705 106.244 309.476 107.067 309.476 107.993ZM321.18 109.845V138.083H326.683C334.347 138.083 339.028 134.688 339.028 123.989C339.028 113.394 334.347 109.845 326.683 109.845H321.18ZM319.431 106.656H326.683C336.508 106.656 342.577 111.285 342.577 123.989C342.577 136.694 336.508 141.272 326.683 141.272H319.431C318.454 141.272 317.682 140.5 317.682 139.523V108.404C317.682 107.427 318.454 106.656 319.431 106.656Z" fill="#FBD0FF"/>
</g>
<defs>
<clipPath id="clip0_941_52070">
<rect width="650" height="388" fill="white"/>
</clipPath>
</defs>
</svg>
