<svg width="1004" height="901" viewBox="0 0 1004 901" fill="none" xmlns="http://www.w3.org/2000/svg">
<rect width="1004" height="901" fill="#FDE6FF"/>
<path d="M157.72 347V308.088H143.704V302.2H178.392V308.088H164.376V347H157.72ZM198.344 320.12H193.672C187.784 320.12 185.864 325.368 185.864 332.408V347H179.656V314.744H185.864V320.952C187.336 316.664 189.896 314.744 194.44 314.744H198.344V320.12ZM231.889 314.744V347H225.681V341.304C223.953 345.336 220.113 347.512 215.312 347.512C208.017 347.512 203.281 342.264 203.281 334.584V314.744H209.489V333.368C209.489 338.488 212.497 341.944 217.041 341.944C222.097 341.944 225.681 337.848 225.681 332.216V314.744H231.889ZM251.171 347.512C243.619 347.512 238.563 343.288 238.115 336.504H243.939C244.323 340.216 247.011 342.328 251.171 342.328C254.883 342.328 257.251 340.344 257.251 337.976C257.251 329.4 238.947 337.272 238.947 323.512C238.947 317.944 243.683 314.232 250.403 314.232C257.699 314.232 262.691 318.264 263.011 324.344H257.187C256.739 320.632 253.155 319.16 250.403 319.16C247.075 319.16 244.835 320.824 244.835 323.32C244.835 331.32 263.267 323.128 263.267 337.848C263.267 343.736 258.467 347.512 251.171 347.512ZM272.993 304.632H279.201V314.744H288.737V320.12H279.201V336.248C279.201 339.704 281.057 341.624 284.193 341.624H288.737V347H283.681C277.153 347 272.993 343.032 272.993 336.44V320.12H266.401V314.744H272.993V304.632ZM308.397 301.24H315.309V309.048H308.397V301.24ZM308.781 347V314.744H314.989V347H308.781ZM334.171 347.512C326.619 347.512 321.563 343.288 321.115 336.504H326.939C327.323 340.216 330.011 342.328 334.171 342.328C337.883 342.328 340.251 340.344 340.251 337.976C340.251 329.4 321.947 337.272 321.947 323.512C321.947 317.944 326.683 314.232 333.403 314.232C340.699 314.232 345.691 318.264 346.011 324.344H340.187C339.739 320.632 336.155 319.16 333.403 319.16C330.075 319.16 327.835 320.824 327.835 323.32C327.835 331.32 346.267 323.128 346.267 337.848C346.267 343.736 341.467 347.512 334.171 347.512ZM384.108 347.512C379.82 347.512 375.852 345.4 373.996 342.2V347H367.788V301.24H373.996V319.48C375.852 316.344 379.756 314.232 384.172 314.232C394.028 314.232 399.596 321.272 399.596 330.872C399.596 340.472 394.028 347.512 384.108 347.512ZM383.404 342.072C389.356 342.072 393.324 337.592 393.324 330.872C393.324 324.152 389.356 319.672 383.404 319.672C377.388 319.672 373.484 324.152 373.484 330.872C373.484 337.592 377.388 342.072 383.404 342.072ZM428.758 336.504H434.966C433.814 343.16 427.99 347.512 420.054 347.512C410.07 347.512 403.862 339.64 403.862 330.68C403.862 321.656 409.494 314.232 419.414 314.232C429.398 314.232 434.71 321.336 434.71 329.528C434.71 330.36 434.646 331.384 434.582 331.96H409.942C410.454 338.04 414.422 342.2 420.054 342.2C424.79 342.2 427.862 340.152 428.758 336.504ZM419.414 319.224C414.358 319.224 411.094 322.04 410.134 327.416H428.438C428.054 322.488 424.726 319.224 419.414 319.224ZM455.175 347.512C444.999 347.512 439.174 339.768 439.174 330.872C439.174 321.976 444.999 314.232 455.175 314.232C462.727 314.232 469.255 318.712 470.151 326.008H463.943C463.367 322.36 459.655 319.672 455.303 319.672C448.839 319.672 445.639 324.664 445.639 330.872C445.639 337.08 448.903 342.072 455.303 342.072C459.719 342.072 462.983 339.768 464.007 336.12H470.151C469.127 342.904 463.367 347.512 455.175 347.512ZM490.815 347.512C481.151 347.512 474.174 340.536 474.174 330.872C474.174 321.208 481.151 314.232 490.815 314.232C500.479 314.232 507.391 321.208 507.391 330.872C507.391 340.536 500.479 347.512 490.815 347.512ZM490.815 342.072C496.895 342.072 501.055 337.464 501.055 330.872C501.055 324.28 496.895 319.672 490.815 319.672C484.671 319.672 480.51 324.28 480.51 330.872C480.51 337.464 484.671 342.072 490.815 342.072ZM513.468 347V314.744H519.676V320.504C521.02 316.856 524.476 314.232 529.212 314.232C534.46 314.232 538.364 316.6 539.644 320.824C540.924 317.176 545.148 314.232 550.14 314.232C557.116 314.232 561.468 319.032 561.468 326.52V347H555.26V328.248C555.26 323.128 552.7 319.672 548.412 319.672C543.484 319.672 540.54 323.128 540.54 328.248V347H534.332V328.248C534.332 323.128 531.772 319.672 527.548 319.672C522.62 319.672 519.676 323.128 519.676 328.248V347H513.468ZM569.022 301.24H575.934V309.048H569.022V301.24ZM569.406 347V314.744H575.614V347H569.406ZM583.468 347V314.744H589.676V320.44C591.404 316.408 595.244 314.232 600.044 314.232C607.34 314.232 612.076 319.48 612.076 327.16V347H605.868V328.376C605.868 323.256 602.86 319.8 598.316 319.8C593.26 319.8 589.676 323.896 589.676 329.528V347H583.468ZM644.159 314.744H650.367V348.536C650.367 355.32 645.439 360.056 638.399 360.056H622.847V354.872H637.759C641.471 354.872 644.159 352.056 644.159 348.152V342.904C642.623 345.656 638.527 347.512 633.983 347.512C624.062 347.512 618.495 340.472 618.495 330.872C618.495 321.272 624.062 314.232 633.919 314.232C638.207 314.232 642.175 316.216 644.159 319.032V314.744ZM634.687 342.072C640.703 342.072 644.607 337.656 644.607 330.872C644.607 324.088 640.703 319.672 634.687 319.672C628.735 319.672 624.831 324.088 624.831 330.872C624.831 337.656 628.735 342.072 634.687 342.072ZM688.065 347.512C678.401 347.512 671.424 340.536 671.424 330.872C671.424 321.208 678.401 314.232 688.065 314.232C697.729 314.232 704.641 321.208 704.641 330.872C704.641 340.536 697.729 347.512 688.065 347.512ZM688.065 342.072C694.145 342.072 698.305 337.464 698.305 330.872C698.305 324.28 694.145 319.672 688.065 319.672C681.921 319.672 677.76 324.28 677.76 330.872C677.76 337.464 681.921 342.072 688.065 342.072ZM710.718 347V314.744H716.926V320.44C718.654 316.408 722.494 314.232 727.294 314.232C734.59 314.232 739.326 319.48 739.326 327.16V347H733.118V328.376C733.118 323.256 730.11 319.8 725.566 319.8C720.51 319.8 716.926 323.896 716.926 329.528V347H710.718ZM770.321 336.504H776.529C775.377 343.16 769.553 347.512 761.617 347.512C751.633 347.512 745.424 339.64 745.424 330.68C745.424 321.656 751.057 314.232 760.977 314.232C770.961 314.232 776.273 321.336 776.273 329.528C776.273 330.36 776.208 331.384 776.145 331.96H751.505C752.017 338.04 755.985 342.2 761.617 342.2C766.353 342.2 769.425 340.152 770.321 336.504ZM760.977 319.224C755.921 319.224 752.657 322.04 751.697 327.416H770.001C769.617 322.488 766.289 319.224 760.977 319.224ZM161.752 424.512C152.088 424.512 145.112 417.536 145.112 407.872C145.112 398.208 152.088 391.232 161.752 391.232C171.416 391.232 178.328 398.208 178.328 407.872C178.328 417.536 171.416 424.512 161.752 424.512ZM161.752 419.072C167.832 419.072 171.992 414.464 171.992 407.872C171.992 401.28 167.832 396.672 161.752 396.672C155.608 396.672 151.448 401.28 151.448 407.872C151.448 414.464 155.608 419.072 161.752 419.072ZM187.305 424V397.12H180.713V391.744H187.305V388.608C187.305 382.272 191.465 378.24 197.929 378.24H203.241V383.616H198.377C195.433 383.616 193.513 385.6 193.513 388.8V391.744H203.241V397.12H193.513V424H187.305ZM227.055 381.632H233.263V391.744H242.799V397.12H233.263V413.248C233.263 416.704 235.119 418.624 238.255 418.624H242.799V424H237.743C231.215 424 227.055 420.032 227.055 413.44V397.12H220.463V391.744H227.055V381.632ZM249.226 424V378.24H255.434V397.44C257.162 393.408 261.002 391.232 265.802 391.232C273.098 391.232 277.833 396.48 277.833 404.16V424H271.626V405.376C271.626 400.256 268.618 396.8 264.074 396.8C259.018 396.8 255.434 400.896 255.434 406.528V424H249.226ZM308.821 413.504H315.029C313.877 420.16 308.053 424.512 300.117 424.512C290.133 424.512 283.924 416.64 283.924 407.68C283.924 398.656 289.557 391.232 299.477 391.232C309.461 391.232 314.773 398.336 314.773 406.528C314.773 407.36 314.708 408.384 314.645 408.96H290.005C290.517 415.04 294.485 419.2 300.117 419.2C304.853 419.2 307.925 417.152 308.821 413.504ZM299.477 396.224C294.421 396.224 291.157 399.04 290.197 404.416H308.501C308.117 399.488 304.789 396.224 299.477 396.224ZM335.843 424V391.744H342.051V397.504C343.395 393.856 346.851 391.232 351.587 391.232C356.835 391.232 360.739 393.6 362.019 397.824C363.299 394.176 367.523 391.232 372.515 391.232C379.491 391.232 383.843 396.032 383.843 403.52V424H377.635V405.248C377.635 400.128 375.075 396.672 370.787 396.672C365.859 396.672 362.915 400.128 362.915 405.248V424H356.707V405.248C356.707 400.128 354.147 396.672 349.923 396.672C344.995 396.672 342.051 400.128 342.051 405.248V424H335.843ZM406.565 424.512C396.901 424.512 389.924 417.536 389.924 407.872C389.924 398.208 396.901 391.232 406.565 391.232C416.229 391.232 423.141 398.208 423.141 407.872C423.141 417.536 416.229 424.512 406.565 424.512ZM406.565 419.072C412.645 419.072 416.805 414.464 416.805 407.872C416.805 401.28 412.645 396.672 406.565 396.672C400.421 396.672 396.26 401.28 396.26 407.872C396.26 414.464 400.421 419.072 406.565 419.072ZM440.234 424.512C432.682 424.512 427.626 420.288 427.178 413.504H433.002C433.385 417.216 436.074 419.328 440.234 419.328C443.946 419.328 446.314 417.344 446.314 414.976C446.314 406.4 428.01 414.272 428.01 400.512C428.01 394.944 432.746 391.232 439.466 391.232C446.762 391.232 451.754 395.264 452.074 401.344H446.25C445.802 397.632 442.218 396.16 439.466 396.16C436.138 396.16 433.898 397.824 433.898 400.32C433.898 408.32 452.33 400.128 452.33 414.848C452.33 420.736 447.53 424.512 440.234 424.512ZM462.055 381.632H468.263V391.744H477.799V397.12H468.263V413.248C468.263 416.704 470.119 418.624 473.255 418.624H477.799V424H472.743C466.215 424 462.055 420.032 462.055 413.44V397.12H455.463V391.744H462.055V381.632ZM497.459 378.24H504.371V386.048H497.459V378.24ZM497.843 424V391.744H504.051V424H497.843ZM511.906 424V391.744H518.114V397.504C519.458 393.856 522.914 391.232 527.65 391.232C532.898 391.232 536.802 393.6 538.082 397.824C539.362 394.176 543.586 391.232 548.578 391.232C555.554 391.232 559.906 396.032 559.906 403.52V424H553.698V405.248C553.698 400.128 551.138 396.672 546.85 396.672C541.922 396.672 538.978 400.128 538.978 405.248V424H532.77V405.248C532.77 400.128 530.21 396.672 525.986 396.672C521.058 396.672 518.114 400.128 518.114 405.248V424H511.906ZM568.163 437.056V391.744H574.371V396.544C576.291 393.344 580.195 391.232 584.675 391.232C594.403 391.232 599.971 398.272 599.971 407.872C599.971 417.472 594.147 424.512 584.355 424.512C580.067 424.512 576.227 422.528 574.371 419.456V437.056H568.163ZM583.779 419.072C589.731 419.072 593.699 414.592 593.699 407.872C593.699 401.152 589.731 396.672 583.779 396.672C577.763 396.672 573.859 401.152 573.859 407.872C573.859 414.592 577.763 419.072 583.779 419.072ZM620.815 424.512C611.151 424.512 604.174 417.536 604.174 407.872C604.174 398.208 611.151 391.232 620.815 391.232C630.479 391.232 637.391 398.208 637.391 407.872C637.391 417.536 630.479 424.512 620.815 424.512ZM620.815 419.072C626.895 419.072 631.055 414.464 631.055 407.872C631.055 401.28 626.895 396.672 620.815 396.672C614.671 396.672 610.51 401.28 610.51 407.872C610.51 414.464 614.671 419.072 620.815 419.072ZM664.396 381.632H670.604V391.744H680.14V397.12H670.604V413.248C670.604 416.704 672.46 418.624 675.596 418.624H680.14V424H675.084C668.556 424 664.396 420.032 664.396 413.44V381.632ZM661.516 397.12H657.484C651.596 397.12 649.676 402.368 649.676 409.408V424H643.468V391.744H649.676V397.952C651.148 393.664 653.708 391.744 658.252 391.744H661.516V397.12ZM697.203 391.232C705.523 391.232 711.027 396.032 711.027 403.2V424H704.819V418.752C703.283 422.208 699.187 424.512 694.323 424.512C687.731 424.512 683.379 420.544 683.379 414.784C683.379 408.576 688.307 404.736 695.923 404.736H702.643C704.115 404.736 704.819 403.968 704.819 402.816C704.819 398.912 702.003 396.224 697.01 396.224C692.531 396.224 689.267 399.04 689.075 402.304H683.315C683.827 395.968 689.587 391.232 697.203 391.232ZM695.539 419.584C701.427 419.584 704.819 415.808 704.819 409.856V409.088H696.499C692.275 409.088 689.523 411.264 689.523 414.656C689.523 417.6 691.955 419.584 695.539 419.584ZM718.218 424V391.744H724.426V397.44C726.154 393.408 729.994 391.232 734.794 391.232C742.09 391.232 746.826 396.48 746.826 404.16V424H740.618V405.376C740.618 400.256 737.61 396.8 733.066 396.8C728.01 396.8 724.426 400.896 724.426 406.528V424H718.218ZM757.368 381.632H763.576V391.744H773.112V397.12H763.576V413.248C763.576 416.704 765.432 418.624 768.568 418.624H773.112V424H768.056C761.528 424 757.368 420.032 757.368 413.44V397.12H750.776V391.744H757.368V381.632ZM161.112 501.512C150.936 501.512 145.112 493.768 145.112 484.872C145.112 475.976 150.936 468.232 161.112 468.232C168.664 468.232 175.192 472.712 176.088 480.008H169.88C169.304 476.36 165.592 473.672 161.24 473.672C154.776 473.672 151.576 478.664 151.576 484.872C151.576 491.08 154.84 496.072 161.24 496.072C165.656 496.072 168.92 493.768 169.944 490.12H176.088C175.064 496.904 169.304 501.512 161.112 501.512ZM210.576 468.744V501H204.368V495.304C202.64 499.336 198.8 501.512 194 501.512C186.704 501.512 181.968 496.264 181.968 488.584V468.744H188.176V487.368C188.176 492.488 191.184 495.944 195.728 495.944C200.784 495.944 204.368 491.848 204.368 486.216V468.744H210.576ZM237.219 474.12H232.547C226.659 474.12 224.739 479.368 224.739 486.408V501H218.531V468.744H224.739V474.952C226.211 470.664 228.771 468.744 233.315 468.744H237.219V474.12ZM261.031 474.12H256.359C250.471 474.12 248.551 479.368 248.551 486.408V501H242.343V468.744H248.551V474.952C250.023 470.664 252.583 468.744 257.127 468.744H261.031V474.12ZM287.821 490.504H294.029C292.877 497.16 287.053 501.512 279.117 501.512C269.133 501.512 262.924 493.64 262.924 484.68C262.924 475.656 268.557 468.232 278.477 468.232C288.461 468.232 293.773 475.336 293.773 483.528C293.773 484.36 293.708 485.384 293.645 485.96H269.005C269.517 492.04 273.485 496.2 279.117 496.2C283.853 496.2 286.925 494.152 287.821 490.504ZM278.477 473.224C273.421 473.224 270.157 476.04 269.197 481.416H287.501C287.117 476.488 283.789 473.224 278.477 473.224ZM300.093 501V468.744H306.301V474.44C308.029 470.408 311.869 468.232 316.669 468.232C323.965 468.232 328.701 473.48 328.701 481.16V501H322.493V482.376C322.493 477.256 319.485 473.8 314.941 473.8C309.885 473.8 306.301 477.896 306.301 483.528V501H300.093ZM350.8 501.512C340.624 501.512 334.799 493.768 334.799 484.872C334.799 475.976 340.624 468.232 350.8 468.232C358.352 468.232 364.88 472.712 365.776 480.008H359.568C358.992 476.36 355.28 473.672 350.928 473.672C344.464 473.672 341.264 478.664 341.264 484.872C341.264 491.08 344.528 496.072 350.928 496.072C355.344 496.072 358.608 493.768 359.632 490.12H365.776C364.752 496.904 358.992 501.512 350.8 501.512ZM371.272 455.24H378.184V463.048H371.272V455.24ZM371.656 501V468.744H377.864V501H371.656ZM408.758 490.504H414.966C413.814 497.16 407.99 501.512 400.054 501.512C390.07 501.512 383.862 493.64 383.862 484.68C383.862 475.656 389.494 468.232 399.414 468.232C409.398 468.232 414.71 475.336 414.71 483.528C414.71 484.36 414.646 485.384 414.582 485.96H389.942C390.454 492.04 394.422 496.2 400.054 496.2C404.79 496.2 407.862 494.152 408.758 490.504ZM399.414 473.224C394.358 473.224 391.094 476.04 390.134 481.416H408.438C408.054 476.488 404.726 473.224 399.414 473.224ZM432.046 501.512C424.494 501.512 419.438 497.288 418.99 490.504H424.814C425.198 494.216 427.886 496.328 432.046 496.328C435.758 496.328 438.126 494.344 438.126 491.976C438.126 483.4 419.822 491.272 419.822 477.512C419.822 471.944 424.558 468.232 431.278 468.232C438.574 468.232 443.566 472.264 443.886 478.344H438.062C437.614 474.632 434.03 473.16 431.278 473.16C427.95 473.16 425.71 474.824 425.71 477.32C425.71 485.32 444.142 477.128 444.142 491.848C444.142 497.736 439.342 501.512 432.046 501.512ZM469.055 501V474.12H462.463V468.744H469.055V465.608C469.055 459.272 473.215 455.24 479.679 455.24H484.991V460.616H480.127C477.183 460.616 475.263 462.6 475.263 465.8V468.744H484.991V474.12H475.263V501H469.055ZM503.065 501.512C493.401 501.512 486.424 494.536 486.424 484.872C486.424 475.208 493.401 468.232 503.065 468.232C512.729 468.232 519.641 475.208 519.641 484.872C519.641 494.536 512.729 501.512 503.065 501.512ZM503.065 496.072C509.145 496.072 513.305 491.464 513.305 484.872C513.305 478.28 509.145 473.672 503.065 473.672C496.921 473.672 492.76 478.28 492.76 484.872C492.76 491.464 496.921 496.072 503.065 496.072ZM544.406 474.12H539.734C533.846 474.12 531.926 479.368 531.926 486.408V501H525.718V468.744H531.926V474.952C533.398 470.664 535.958 468.744 540.502 468.744H544.406V474.12ZM579.065 501.512C569.401 501.512 562.424 494.536 562.424 484.872C562.424 475.208 569.401 468.232 579.065 468.232C588.729 468.232 595.641 475.208 595.641 484.872C595.641 494.536 588.729 501.512 579.065 501.512ZM579.065 496.072C585.145 496.072 589.305 491.464 589.305 484.872C589.305 478.28 585.145 473.672 579.065 473.672C572.921 473.672 568.76 478.28 568.76 484.872C568.76 491.464 572.921 496.072 579.065 496.072ZM601.718 501V468.744H607.926V474.44C609.654 470.408 613.494 468.232 618.294 468.232C625.59 468.232 630.326 473.48 630.326 481.16V501H624.118V482.376C624.118 477.256 621.11 473.8 616.566 473.8C611.51 473.8 607.926 477.896 607.926 483.528V501H601.718ZM638.601 501V455.24H644.809V501H638.601ZM652.647 455.24H659.559V463.048H652.647V455.24ZM653.031 501V468.744H659.239V501H653.031ZM667.093 501V468.744H673.301V474.44C675.029 470.408 678.869 468.232 683.669 468.232C690.965 468.232 695.701 473.48 695.701 481.16V501H689.493V482.376C689.493 477.256 686.485 473.8 681.941 473.8C676.885 473.8 673.301 477.896 673.301 483.528V501H667.093ZM726.696 490.504H732.904C731.752 497.16 725.928 501.512 717.992 501.512C708.008 501.512 701.799 493.64 701.799 484.68C701.799 475.656 707.432 468.232 717.352 468.232C727.336 468.232 732.648 475.336 732.648 483.528C732.648 484.36 732.583 485.384 732.52 485.96H707.88C708.392 492.04 712.36 496.2 717.992 496.2C722.728 496.2 725.8 494.152 726.696 490.504ZM717.352 473.224C712.296 473.224 709.032 476.04 708.072 481.416H726.376C725.992 476.488 722.664 473.224 717.352 473.224ZM158.296 578.512C150.744 578.512 145.688 574.288 145.24 567.504H151.064C151.448 571.216 154.136 573.328 158.296 573.328C162.008 573.328 164.376 571.344 164.376 568.976C164.376 560.4 146.072 568.272 146.072 554.512C146.072 548.944 150.808 545.232 157.528 545.232C164.824 545.232 169.816 549.264 170.136 555.344H164.312C163.864 551.632 160.28 550.16 157.528 550.16C154.2 550.16 151.96 551.824 151.96 554.32C151.96 562.32 170.392 554.128 170.392 568.848C170.392 574.736 165.592 578.512 158.296 578.512ZM177.163 578V532.24H183.371V551.44C185.099 547.408 188.939 545.232 193.739 545.232C201.035 545.232 205.771 550.48 205.771 558.16V578H199.563V559.376C199.563 554.256 196.555 550.8 192.011 550.8C186.955 550.8 183.371 554.896 183.371 560.528V578H177.163ZM228.502 578.512C218.838 578.512 211.862 571.536 211.862 561.872C211.862 552.208 218.838 545.232 228.502 545.232C238.166 545.232 245.078 552.208 245.078 561.872C245.078 571.536 238.166 578.512 228.502 578.512ZM228.502 573.072C234.582 573.072 238.742 568.464 238.742 561.872C238.742 555.28 234.582 550.672 228.502 550.672C222.358 550.672 218.198 555.28 218.198 561.872C218.198 568.464 222.358 573.072 228.502 573.072ZM251.476 591.056V545.744H257.684V550.544C259.604 547.344 263.508 545.232 267.988 545.232C277.716 545.232 283.284 552.272 283.284 561.872C283.284 571.472 277.46 578.512 267.668 578.512C263.38 578.512 259.54 576.528 257.684 573.456V591.056H251.476ZM267.092 573.072C273.044 573.072 277.012 568.592 277.012 561.872C277.012 555.152 273.044 550.672 267.092 550.672C261.076 550.672 257.172 555.152 257.172 561.872C257.172 568.592 261.076 573.072 267.092 573.072ZM300.359 578.512C292.807 578.512 287.751 574.288 287.303 567.504H293.127C293.51 571.216 296.199 573.328 300.359 573.328C304.071 573.328 306.439 571.344 306.439 568.976C306.439 560.4 288.135 568.272 288.135 554.512C288.135 548.944 292.871 545.232 299.591 545.232C306.887 545.232 311.879 549.264 312.199 555.344H306.375C305.927 551.632 302.343 550.16 299.591 550.16C296.263 550.16 294.023 551.824 294.023 554.32C294.023 562.32 312.455 554.128 312.455 568.848C312.455 574.736 307.655 578.512 300.359 578.512ZM346.328 545.232C354.648 545.232 360.152 550.032 360.152 557.2V578H353.944V572.752C352.408 576.208 348.312 578.512 343.448 578.512C336.856 578.512 332.504 574.544 332.504 568.784C332.504 562.576 337.432 558.736 345.048 558.736H351.768C353.24 558.736 353.944 557.968 353.944 556.816C353.944 552.912 351.128 550.224 346.135 550.224C341.656 550.224 338.392 553.04 338.2 556.304H332.44C332.952 549.968 338.712 545.232 346.328 545.232ZM344.664 573.584C350.552 573.584 353.944 569.808 353.944 563.856V563.088H345.624C341.4 563.088 338.648 565.264 338.648 568.656C338.648 571.6 341.08 573.584 344.664 573.584ZM367.343 578V545.744H373.551V551.44C375.279 547.408 379.119 545.232 383.919 545.232C391.215 545.232 395.951 550.48 395.951 558.16V578H389.743V559.376C389.743 554.256 386.735 550.8 382.191 550.8C377.135 550.8 373.551 554.896 373.551 560.528V578H367.343ZM417.538 578.512C407.618 578.512 402.049 571.472 402.049 561.872C402.049 552.272 407.618 545.232 417.474 545.232C421.89 545.232 425.794 547.344 427.714 550.48V532.24H433.922V578H427.714V573.2C425.794 576.4 421.826 578.512 417.538 578.512ZM418.242 573.072C424.258 573.072 428.162 568.592 428.162 561.872C428.162 555.152 424.258 550.672 418.242 550.672C412.29 550.672 408.385 555.152 408.385 561.872C408.385 568.592 412.29 573.072 418.242 573.072ZM456.843 578V545.744H463.051V551.504C464.395 547.856 467.851 545.232 472.587 545.232C477.835 545.232 481.739 547.6 483.019 551.824C484.299 548.176 488.523 545.232 493.515 545.232C500.491 545.232 504.843 550.032 504.843 557.52V578H498.635V559.248C498.635 554.128 496.075 550.672 491.787 550.672C486.859 550.672 483.915 554.128 483.915 559.248V578H477.707V559.248C477.707 554.128 475.147 550.672 470.923 550.672C465.995 550.672 463.051 554.128 463.051 559.248V578H456.843ZM525.015 545.232C533.335 545.232 538.839 550.032 538.839 557.2V578H532.631V572.752C531.095 576.208 526.999 578.512 522.135 578.512C515.543 578.512 511.191 574.544 511.191 568.784C511.191 562.576 516.119 558.736 523.735 558.736H530.455C531.927 558.736 532.631 557.968 532.631 556.816C532.631 552.912 529.815 550.224 524.823 550.224C520.343 550.224 517.079 553.04 516.887 556.304H511.127C511.639 549.968 517.399 545.232 525.015 545.232ZM523.351 573.584C529.239 573.584 532.631 569.808 532.631 563.856V563.088H524.311C520.087 563.088 517.335 565.264 517.335 568.656C517.335 571.6 519.767 573.584 523.351 573.584ZM564.719 551.12H560.047C554.159 551.12 552.239 556.368 552.239 563.408V578H546.031V545.744H552.239V551.952C553.711 547.664 556.271 545.744 560.815 545.744H564.719V551.12ZM592.051 578L580.467 562.576L576.435 566.288V578H570.163V532.24H576.435V558.608L590.451 545.744H598.515L584.947 558.352L599.731 578H592.051ZM625.696 567.504H631.904C630.752 574.16 624.928 578.512 616.992 578.512C607.008 578.512 600.799 570.64 600.799 561.68C600.799 552.656 606.432 545.232 616.352 545.232C626.336 545.232 631.648 552.336 631.648 560.528C631.648 561.36 631.583 562.384 631.52 562.96H606.88C607.392 569.04 611.36 573.2 616.992 573.2C621.728 573.2 624.8 571.152 625.696 567.504ZM616.352 550.224C611.296 550.224 608.032 553.04 607.072 558.416H625.376C624.992 553.488 621.664 550.224 616.352 550.224ZM641.243 535.632H647.451V545.744H656.987V551.12H647.451V567.248C647.451 570.704 649.307 572.624 652.443 572.624H656.987V578H651.931C645.403 578 641.243 574.032 641.243 567.44V551.12H634.651V545.744H641.243V535.632ZM662.601 591.056V545.744H668.809V550.544C670.729 547.344 674.633 545.232 679.113 545.232C688.841 545.232 694.409 552.272 694.409 561.872C694.409 571.472 688.585 578.512 678.793 578.512C674.505 578.512 670.665 576.528 668.809 573.456V591.056H662.601ZM678.217 573.072C684.169 573.072 688.137 568.592 688.137 561.872C688.137 555.152 684.169 550.672 678.217 550.672C672.201 550.672 668.297 555.152 668.297 561.872C668.297 568.592 672.201 573.072 678.217 573.072ZM700.788 578V532.24H706.996V578H700.788ZM727.453 545.232C735.773 545.232 741.277 550.032 741.277 557.2V578H735.069V572.752C733.533 576.208 729.437 578.512 724.573 578.512C717.981 578.512 713.629 574.544 713.629 568.784C713.629 562.576 718.557 558.736 726.173 558.736H732.893C734.365 558.736 735.069 557.968 735.069 556.816C735.069 552.912 732.253 550.224 727.26 550.224C722.781 550.224 719.517 553.04 719.325 556.304H713.565C714.077 549.968 719.837 545.232 727.453 545.232ZM725.789 573.584C731.677 573.584 735.069 569.808 735.069 563.856V563.088H726.749C722.525 563.088 719.773 565.264 719.773 568.656C719.773 571.6 722.205 573.584 725.789 573.584ZM762.612 578.512C752.436 578.512 746.612 570.768 746.612 561.872C746.612 552.976 752.436 545.232 762.612 545.232C770.164 545.232 776.692 549.712 777.588 557.008H771.38C770.804 553.36 767.092 550.672 762.74 550.672C756.276 550.672 753.076 555.664 753.076 561.872C753.076 568.08 756.34 573.072 762.74 573.072C767.156 573.072 770.42 570.768 771.444 567.12H777.588C776.564 573.904 770.804 578.512 762.612 578.512ZM806.508 567.504H812.716C811.564 574.16 805.74 578.512 797.804 578.512C787.82 578.512 781.612 570.64 781.612 561.68C781.612 552.656 787.244 545.232 797.164 545.232C807.148 545.232 812.46 552.336 812.46 560.528C812.46 561.36 812.396 562.384 812.332 562.96H787.692C788.204 569.04 792.172 573.2 797.804 573.2C802.54 573.2 805.612 571.152 806.508 567.504ZM797.164 550.224C792.108 550.224 788.844 553.04 787.884 558.416H806.188C805.804 553.488 802.476 550.224 797.164 550.224ZM829.796 578.512C822.244 578.512 817.188 574.288 816.74 567.504H822.564C822.948 571.216 825.636 573.328 829.796 573.328C833.508 573.328 835.876 571.344 835.876 568.976C835.876 560.4 817.572 568.272 817.572 554.512C817.572 548.944 822.308 545.232 829.028 545.232C836.324 545.232 841.316 549.264 841.636 555.344H835.812C835.364 551.632 831.78 550.16 829.028 550.16C825.7 550.16 823.46 551.824 823.46 554.32C823.46 562.32 841.892 554.128 841.892 568.848C841.892 574.736 837.092 578.512 829.796 578.512ZM847.989 571.088H854.837V578H847.989V571.088Z" fill="#4642FF"/>
</svg>
