<svg width="600" height="600" viewBox="0 0 600 600" fill="none" xmlns="http://www.w3.org/2000/svg">
<g filter="url(#filter0_iii_1319_69566)">
<g clip-path="url(#clip0_1319_69566)">
<rect width="600" height="600" rx="300" fill="#3325A2"/>
<g clip-path="url(#clip1_1319_69566)">
<path d="M90.782 400.423C90.782 400.423 90.7583 400.423 90.7583 400.407C87.9793 385.816 83.134 371.7 76.3807 358.47L50.0402 306.858C43.7619 294.563 37.3015 280.621 41.4897 267.454C44.8782 256.814 54.8459 249.229 65.5816 246.157C76.3094 243.085 87.7735 243.901 98.8179 245.587C128.001 250.037 155.996 260.305 181.141 275.783C205.763 290.984 227.092 310.848 248.247 330.586C261.183 342.675 274.524 355.272 281.428 371.565C288.331 387.859 287.049 409.069 273.629 420.644C256.861 435.085 230.029 428.901 210.989 440.175C182.217 457.221 181.679 506.711 149.686 516.196C128.357 522.593 106.118 504.764 98.5725 483.847C92.9355 468.392 92.8801 451.806 93.458 435.211C93.8697 423.557 92.9909 411.903 90.8216 400.447C90.8216 400.439 90.8058 400.431 90.7978 400.431L90.782 400.423Z" fill="#6966FF"/>
<path d="M-18.5043 -66.3488C-16.5171 -22.7806 -25.6298 20.5739 -44.9794 59.653C-52.6353 75.0599 -61.8667 89.7621 -67.9709 105.85C-74.075 121.937 -76.8777 140.076 -71.209 156.338C-59.6578 189.439 -16.3508 207.665 -14.5536 242.682C-13.6194 260.876 -24.7035 277.138 -32.2169 293.732C-39.7303 310.327 -42.7705 332.503 -29.1292 344.576C-16.1925 356.08 4.98595 352.003 19.5377 361.487C32.1656 369.729 36.5993 385.825 40.0274 400.503C45.704 424.508 51.3886 448.513 57.0652 472.526C60.8892 488.701 64.1035 507.646 53.3362 520.282C40.3995 535.507 16.0146 531.548 -2.73331 524.423C-30.0317 514.004 -55.6913 499.721 -78.9282 482.011C-138.125 436.875 -178.273 371.352 -196.467 299.148C-205.635 262.649 -205.666 224.433 -202.492 186.922C-198.794 143.258 -190.845 100.054 -178.772 57.935C-168.796 23.1153 -155.242 -12.1558 -129.329 -37.4353C-103.416 -62.7148 -51.0123 -82.2861 -18.4964 -66.3488H-18.5043Z" fill="#4538BB"/>
<path d="M420.971 195.702C411.43 219.81 403.893 249.428 419.894 269.87C431.152 284.287 450.929 289.149 469.226 289.283C487.522 289.41 505.827 285.855 524.052 287.518C542.278 289.18 561.532 297.652 568.935 314.388C575.838 330.025 570.581 348.377 562.585 363.475C554.581 378.573 543.821 392.428 538.865 408.761C533.909 425.102 536.712 445.663 551.074 454.902C565.182 463.983 584.943 458.259 596.827 446.415C608.711 434.571 614.585 418.151 620.111 402.309L658.304 292.759C667.306 266.878 676.395 240.664 678.041 213.342C679.68 186.019 672.895 157.106 653.91 137.36C635.407 118.169 610.777 112.873 585.521 108.471C566.021 105.074 545.69 97.0699 525.762 97.2757C471.284 97.7904 438.555 151.287 420.994 195.694L420.971 195.702Z" fill="#FBD0FF"/>
<path d="M288.779 350.848C302.99 365.123 311.54 384.061 312.847 404.162C313.741 415.436 313.71 426.774 312.752 438.04C310.495 462.385 302.095 486.96 284.899 504.346C269.231 520.188 246.081 530.932 239.85 552.332C233.382 574.548 250.04 598.173 271.123 607.737C292.207 617.301 316.307 616.366 339.401 615.194C365.702 613.904 394.829 611.141 416.285 597.737C428.786 589.939 442.942 584.99 457.66 584.634C472.148 584.389 485.988 578.554 496.272 568.341C506.556 558.128 512.494 544.336 512.843 529.847C513.373 510.031 503.484 490.491 506.897 470.951C510.135 452.481 524.948 436.646 524.243 417.906C523.531 398.779 506.548 383.958 488.743 376.927C470.937 369.897 451.413 368.218 433.536 361.402C410.402 352.59 390.942 334.808 379.414 312.972C366.478 288.461 372.455 255.011 354.269 233.682C316.6 189.472 264.702 256.325 264.702 294.288C264.695 315.371 273.871 336.106 288.779 350.848Z" fill="#4538BB"/>
<path d="M414.707 118.025C426.084 119.276 436.511 110.544 441.665 100.338C446.819 90.141 448.275 78.4949 451.173 67.4188C454.071 56.3426 459.162 44.9498 469.011 39.0911C483.61 30.4614 502.991 37.4285 515.445 48.9717C518.873 52.194 522.071 55.6538 525.009 59.3353C540.107 77.9249 570.43 65.9224 568.458 42.0838V41.5454C567.532 32.6703 564.397 24.1672 559.338 16.8122C554.279 9.45711 547.462 3.48756 539.505 -0.558117C526.26 -7.11354 510.972 -7.79439 496.19 -8.03191C477.941 -8.32484 458.037 -7.5648 444.087 4.18429C432.124 14.247 432.869 26.4157 430.438 40.3104C428.467 51.5686 423.558 56.3743 415.34 63.6977C406.101 71.8919 395.515 80.2208 395.531 93.7038C395.523 104.669 403.068 116.751 414.715 118.033L414.707 118.025Z" fill="#FFFBF3"/>
<path d="M527.233 -33.6752C536.496 -16.0911 553.677 -1.32561 573.604 -0.573471C590.373 0.0440674 606.286 -9.45653 617.117 -22.2903C627.94 -35.124 634.448 -50.9742 640.108 -66.7848C645.357 -81.4078 650.092 -97.163 646.49 -112.277C643.117 -126.369 632.69 -138.039 620.276 -145.497C607.862 -152.963 593.555 -156.668 579.297 -159.17C571.751 -160.5 563.961 -161.498 556.527 -159.709C549.085 -157.919 542.03 -152.742 540.027 -145.371C536.591 -132.679 548.435 -121.54 558.609 -113.211C563.035 -109.593 567.555 -105.064 570.77 -100.14C577.594 -89.6733 565.125 -82.6666 553.146 -86.2135C537.557 -90.8293 519.134 -95.0808 514.566 -88.2166C507.258 -77.3701 522.071 -43.7458 527.249 -33.6752H527.233Z" fill="#4538BB"/>
<path d="M103.026 -34.1899C141.337 -28.3787 167.21 12.0464 205.466 18.2455C229.352 22.1249 254.766 11.8643 277.552 20.0031C297.424 27.089 310.891 48.7742 308.738 69.7547C306.584 90.7431 289.222 109.135 268.455 112.792C247.063 116.569 225.805 106.142 204.12 105.026C151.067 102.318 59.2357 186.755 19.5073 116.791C-11.5518 62.1383 31.1297 -45.0919 103.026 -34.1978V-34.1899Z" fill="#4538BB"/>
</g>
<path d="M222.828 277.794L225.642 264.331C258.528 107.015 472.394 81.3994 541.5 226.5V226.5" stroke="#FDE6FF" stroke-width="3.89616" stroke-linecap="round" stroke-dasharray="9.42 9.42"/>
<g filter="url(#filter1_d_1319_69566)">
<rect x="189" y="298.898" width="43.5071" height="43.5072" rx="21.7536" fill="white"/>
<g clip-path="url(#clip2_1319_69566)">
<path d="M217.964 319.593C217.915 319.561 217.858 319.548 217.8 319.556C217.743 319.563 217.69 319.59 217.651 319.633C216.788 320.604 215.586 321.208 214.292 321.322C213.07 321.414 211.859 321.037 210.906 320.267C210.863 320.233 210.81 320.214 210.755 320.214C210.7 320.214 210.646 320.233 210.603 320.267C209.759 320.958 208.703 321.336 207.612 321.338C207.484 321.338 207.355 321.332 207.222 321.322C205.922 321.21 204.715 320.604 203.848 319.629C203.81 319.586 203.757 319.559 203.7 319.551C203.644 319.543 203.586 319.556 203.537 319.587C202.866 320.031 202.071 320.251 201.267 320.215C201.234 320.214 201.202 320.22 201.172 320.231C201.142 320.243 201.114 320.261 201.091 320.283C201.067 320.306 201.049 320.333 201.036 320.362C201.023 320.392 201.016 320.424 201.016 320.457V329.78C201.016 330.168 201.17 330.539 201.444 330.813C201.718 331.087 202.089 331.241 202.477 331.241H219.035C219.423 331.241 219.794 331.087 220.068 330.813C220.342 330.539 220.496 330.168 220.496 329.78V320.468C220.496 320.435 220.49 320.402 220.476 320.372C220.463 320.341 220.444 320.314 220.42 320.291C220.396 320.268 220.367 320.251 220.336 320.239C220.305 320.228 220.271 320.223 220.238 320.225C219.432 320.265 218.634 320.043 217.964 319.593ZM213.678 323.803C213.683 323.705 213.727 323.613 213.8 323.547C213.873 323.481 213.97 323.447 214.068 323.452H217.185C217.283 323.447 217.379 323.481 217.452 323.547C217.525 323.613 217.569 323.705 217.574 323.803V328.951C217.574 329.08 217.523 329.204 217.432 329.296C217.34 329.387 217.216 329.438 217.087 329.438H214.165C214.036 329.438 213.912 329.387 213.821 329.296C213.729 329.204 213.678 329.08 213.678 328.951V323.803ZM204.425 323.776C204.431 323.685 204.472 323.6 204.541 323.539C204.609 323.478 204.699 323.447 204.79 323.452H209.9C209.991 323.447 210.081 323.478 210.149 323.539C210.218 323.6 210.259 323.685 210.265 323.776V327.024C210.259 327.115 210.218 327.2 210.149 327.261C210.081 327.322 209.991 327.353 209.9 327.348H204.788C204.697 327.353 204.607 327.322 204.539 327.261C204.47 327.2 204.429 327.115 204.423 327.024L204.425 323.776Z" fill="#6966FF"/>
<path d="M220.288 310.059H217.217C217.179 310.059 217.142 310.068 217.108 310.085C217.075 310.102 217.045 310.126 217.022 310.156C217 310.187 216.985 310.224 216.979 310.262C216.974 310.3 216.977 310.339 216.989 310.375L218.507 314.942C218.532 315.016 218.545 315.094 218.546 315.172C218.546 317.268 218.546 317.887 218.546 318.086C218.545 318.125 218.554 318.164 218.572 318.2C218.59 318.235 218.616 318.265 218.648 318.288C218.957 318.531 219.324 318.687 219.712 318.743C220.1 318.798 220.496 318.749 220.86 318.602C221.326 318.397 221.723 318.063 222.003 317.639C222.284 317.214 222.436 316.718 222.442 316.21V315.288C222.442 315.259 222.436 315.229 222.426 315.202L220.591 310.387C220.51 310.174 220.374 310.059 220.288 310.059Z" fill="#6966FF"/>
<path d="M217.038 318.034C217.068 317.993 217.083 317.944 217.083 317.894V315.33C217.083 315.304 217.079 315.278 217.07 315.253L215.394 310.229C215.378 310.181 215.347 310.138 215.306 310.109C215.264 310.079 215.214 310.063 215.163 310.063H211.728C211.663 310.062 211.601 310.088 211.555 310.134C211.51 310.18 211.485 310.241 211.484 310.306V318.728C211.797 319.133 212.209 319.451 212.681 319.651C213.152 319.851 213.668 319.926 214.177 319.869C214.762 319.802 215.324 319.602 215.82 319.284C216.316 318.966 216.733 318.538 217.038 318.034Z" fill="#6966FF"/>
<path d="M210.025 318.724V310.302C210.025 310.238 209.999 310.176 209.953 310.13C209.908 310.084 209.846 310.059 209.781 310.059H206.342C206.291 310.059 206.241 310.075 206.199 310.105C206.158 310.135 206.127 310.177 206.111 310.225L204.435 315.253C204.426 315.278 204.422 315.304 204.422 315.33V317.888C204.422 317.938 204.437 317.987 204.466 318.028C204.772 318.536 205.191 318.965 205.691 319.284C206.19 319.603 206.757 319.802 207.346 319.866C207.853 319.924 208.367 319.849 208.836 319.648C209.306 319.448 209.715 319.13 210.025 318.724Z" fill="#6966FF"/>
<path d="M202.966 318.094V315.172C202.967 315.094 202.979 315.016 203.003 314.941L204.525 310.379C204.537 310.343 204.541 310.304 204.535 310.265C204.529 310.227 204.514 310.191 204.492 310.16C204.469 310.13 204.44 310.105 204.406 310.088C204.372 310.071 204.335 310.062 204.297 310.062H201.224C201.138 310.062 201.003 310.177 200.922 310.391L199.088 315.202C199.077 315.229 199.071 315.259 199.07 315.288V316.21C199.076 316.717 199.229 317.212 199.509 317.635C199.79 318.058 200.186 318.392 200.651 318.595C201.038 318.78 201.475 318.83 201.894 318.74C202.313 318.649 202.69 318.422 202.966 318.094Z" fill="#6966FF"/>
</g>
</g>
<path d="M223.408 289.216L232.938 277.427C234.271 275.779 233.297 273.085 231.161 272.513L217.718 268.911C215.658 268.359 213.928 270.173 214.473 272.314L218.386 287.704C219.002 290.123 221.955 291.012 223.408 289.216Z" fill="#F8B3FE"/>
<rect x="238" y="170" width="43.5071" height="43.5071" rx="21.7536" fill="#D0E1FF"/>
<path d="M263.038 195.334H265.678C265.278 197.834 263.738 199.414 261.058 199.414H260.158C257.198 199.414 255.518 197.714 255.058 194.634H253.358V192.934H254.938V192.734V191.774V191.454H253.358V189.734H255.098C255.578 186.734 257.238 185.094 260.158 185.094H261.058C263.678 185.094 265.218 186.614 265.638 189.034H262.958C262.738 188.054 261.958 187.374 260.958 187.374H260.278C258.838 187.374 257.998 188.214 257.718 189.734H261.658V191.454H257.598V192.934H261.658V194.634H257.678C257.958 196.234 258.798 197.114 260.278 197.114H260.958C261.998 197.114 262.818 196.394 263.038 195.334Z" fill="#4642FF"/>
</g>
</g>
<defs>
<filter id="filter0_iii_1319_69566" x="0" y="-6" width="600" height="636" filterUnits="userSpaceOnUse" color-interpolation-filters="sRGB">
<feFlood flood-opacity="0" result="BackgroundImageFix"/>
<feBlend mode="normal" in="SourceGraphic" in2="BackgroundImageFix" result="shape"/>
<feColorMatrix in="SourceAlpha" type="matrix" values="0 0 0 0 0 0 0 0 0 0 0 0 0 0 0 0 0 0 127 0" result="hardAlpha"/>
<feOffset dy="30"/>
<feGaussianBlur stdDeviation="15"/>
<feComposite in2="hardAlpha" operator="arithmetic" k2="-1" k3="1"/>
<feColorMatrix type="matrix" values="0 0 0 0 1 0 0 0 0 1 0 0 0 0 1 0 0 0 0.65 0"/>
<feBlend mode="normal" in2="shape" result="effect1_innerShadow_1319_69566"/>
<feColorMatrix in="SourceAlpha" type="matrix" values="0 0 0 0 0 0 0 0 0 0 0 0 0 0 0 0 0 0 127 0" result="hardAlpha"/>
<feOffset dy="10"/>
<feGaussianBlur stdDeviation="5"/>
<feComposite in2="hardAlpha" operator="arithmetic" k2="-1" k3="1"/>
<feColorMatrix type="matrix" values="0 0 0 0 1 0 0 0 0 1 0 0 0 0 1 0 0 0 0.4 0"/>
<feBlend mode="normal" in2="effect1_innerShadow_1319_69566" result="effect2_innerShadow_1319_69566"/>
<feColorMatrix in="SourceAlpha" type="matrix" values="0 0 0 0 0 0 0 0 0 0 0 0 0 0 0 0 0 0 127 0" result="hardAlpha"/>
<feOffset dy="-6"/>
<feGaussianBlur stdDeviation="5"/>
<feComposite in2="hardAlpha" operator="arithmetic" k2="-1" k3="1"/>
<feColorMatrix type="matrix" values="0 0 0 0 1 0 0 0 0 1 0 0 0 0 1 0 0 0 0.4 0"/>
<feBlend mode="normal" in2="effect2_innerShadow_1319_69566" result="effect3_innerShadow_1319_69566"/>
</filter>
<filter id="filter1_d_1319_69566" x="183.199" y="298.898" width="55.1097" height="55.1091" filterUnits="userSpaceOnUse" color-interpolation-filters="sRGB">
<feFlood flood-opacity="0" result="BackgroundImageFix"/>
<feColorMatrix in="SourceAlpha" type="matrix" values="0 0 0 0 0 0 0 0 0 0 0 0 0 0 0 0 0 0 127 0" result="hardAlpha"/>
<feOffset dy="5.80095"/>
<feGaussianBlur stdDeviation="2.90048"/>
<feComposite in2="hardAlpha" operator="out"/>
<feColorMatrix type="matrix" values="0 0 0 0 0.156332 0 0 0 0 0.0740972 0 0 0 0 0.808333 0 0 0 0.15 0"/>
<feBlend mode="normal" in2="BackgroundImageFix" result="effect1_dropShadow_1319_69566"/>
<feBlend mode="normal" in="SourceGraphic" in2="effect1_dropShadow_1319_69566" result="shape"/>
</filter>
<clipPath id="clip0_1319_69566">
<rect width="600" height="600" rx="300" fill="white"/>
</clipPath>
<clipPath id="clip1_1319_69566">
<rect width="920" height="920" fill="white" transform="translate(-204.398 -263.6)"/>
</clipPath>
<clipPath id="clip2_1319_69566">
<rect width="23.377" height="23.377" fill="white" transform="translate(199.07 308.963)"/>
</clipPath>
</defs>
</svg>
