<svg width="174" height="40" viewBox="0 0 174 40" fill="none" xmlns="http://www.w3.org/2000/svg">
<g clip-path="url(#clip0_996_51672)">
<path d="M27.4788 10.9704C27.3084 10.8658 27.1679 10.7191 27.0707 10.5443C26.9736 10.3696 26.923 10.1728 26.924 9.97284C26.3709 4.43164 21.717 0 16.0655 0C10.414 0 5.64985 4.32134 5.20702 9.97284C5.1948 10.1698 5.13881 10.3615 5.04313 10.5341C4.94744 10.7067 4.81446 10.8558 4.65389 10.9704C1.88329 12.964 0 16.1791 0 19.8337C0 24.8202 3.43567 29.1415 8.08956 30.3613C8.86493 30.5836 9.75225 30.6939 9.97284 30.4716C10.5276 30.1391 11.303 27.3685 10.9705 26.8154C10.7482 26.4812 10.0831 26.1503 9.19747 25.9281C6.42687 25.1527 4.43164 22.7146 4.43164 19.7234C4.43164 18.0607 5.09672 16.6203 6.09433 15.4021C6.54388 14.8417 7.11163 14.3875 7.75702 14.0719C8.97523 13.4069 9.64031 12.1887 9.64031 10.8585C9.64031 10.1934 9.7506 9.52836 9.97284 8.86493C10.8602 6.31657 13.1863 4.43329 16.0672 4.43329C18.9481 4.43329 21.2758 6.31657 22.1615 8.86493C22.3821 9.53 22.494 10.1951 22.494 10.8585C22.494 12.1887 23.1575 13.4069 24.3773 14.0719C25.0424 14.4045 25.4852 14.8473 26.04 15.4021C27.1034 16.5911 27.6949 18.1283 27.7027 19.7234C27.7014 21.4273 27.0241 23.0609 25.8195 24.2659C24.6148 25.4708 22.9813 26.1486 21.2775 26.1503C17.1767 26.1503 13.9633 29.4757 13.9633 33.5748V37.7858C13.9633 38.5612 14.0736 39.4469 14.2958 39.6691C14.7403 40.1136 17.6212 40.1136 18.0624 39.6691C18.2846 39.4469 18.3966 38.5612 18.3966 37.7858V33.4645C18.3966 31.9137 19.7251 30.5836 21.2775 30.5836C27.2599 30.5836 32.136 25.7075 32.136 19.7251C32.1327 16.1775 30.2478 12.964 27.4788 10.9704Z" fill="#3A3A5F"/>
</g>
<g clip-path="url(#clip1_996_51672)">
<path d="M79.6389 14.7598H76.192C75.9161 14.7598 75.7785 14.8974 75.7785 15.1729V21.7919C75.7785 25.3772 74.5373 27.1698 71.9174 27.1698C70.9521 27.1698 70.1247 26.8942 69.5733 26.2049C69.0215 25.5155 68.7456 24.6881 68.7456 23.5853V15.3112C68.7456 15.0357 68.608 14.8981 68.3321 14.8981H64.8848C64.6089 14.8981 64.4714 15.0357 64.4714 15.3112V24.5498C64.4714 26.4808 65.0228 28.1351 66.2636 29.3766C67.3668 30.6178 68.8839 31.1696 70.8145 31.1696C72.745 31.1696 74.2618 30.6178 75.5029 29.5142C75.6405 29.3766 75.7788 29.5142 75.7788 29.6518V30.2036C75.7788 30.4791 75.9164 30.6167 76.1923 30.6167H79.6396C79.9152 30.6167 80.0528 30.4791 80.0528 30.2036V15.035C80.0524 14.8977 79.9152 14.7598 79.6389 14.7598ZM103.219 14.208C100.737 14.208 98.8062 15.0353 97.4275 16.8283C96.1866 15.1729 94.5316 14.208 92.1872 14.208C90.395 14.208 88.8782 14.7591 87.7747 15.7247C87.6371 15.8623 87.4991 15.7247 87.4991 15.5871V15.0353C87.4991 14.7598 87.3615 14.6222 87.0853 14.6222H83.7763C83.5007 14.6222 83.3631 14.7598 83.3631 15.0353V30.0663C83.3631 30.3419 83.5007 30.4795 83.7763 30.4795H87.2239C87.4995 30.4795 87.6374 30.3419 87.6374 30.0663V22.8955C87.6374 21.2408 87.9133 20.138 88.602 19.311C89.2914 18.483 90.1194 18.0698 91.2223 18.0698C92.0496 18.0698 92.8773 18.3454 93.4291 19.0347C93.9805 19.5865 94.2564 20.4139 94.2564 21.5167V30.0663C94.2564 30.3426 94.394 30.4795 94.6699 30.4795H98.1176C98.3931 30.4795 98.5307 30.3422 98.5307 30.0663V22.8955C98.5307 21.2408 98.8062 20.138 99.4956 19.311C100.185 18.483 101.012 18.0698 102.116 18.0698C102.943 18.0698 103.771 18.3454 104.322 19.0347C104.874 19.5865 105.15 20.4139 105.15 21.5167V30.0663C105.15 30.3426 105.287 30.4795 105.563 30.4795H108.873C109.148 30.4795 109.286 30.3422 109.286 30.0663V20.5515C109.286 18.6205 108.734 17.1038 107.493 16.001C106.253 14.8977 104.874 14.208 103.219 14.208ZM123.352 26.7566C123.214 26.4811 123.076 26.4811 122.8 26.4811C121.973 26.8942 121.284 27.0329 120.594 27.0329C119.077 27.0329 118.249 26.0673 118.249 24.2743V18.4833C118.249 18.2071 118.387 18.0695 118.663 18.0695H123.075C123.351 18.0695 123.489 17.9319 123.489 17.6563V15.036C123.489 14.7605 123.351 14.6229 123.075 14.6229H118.663C118.387 14.6229 118.249 14.4853 118.249 14.209V10.2103C118.249 9.93476 118.112 9.79647 117.836 9.79647H114.389C114.112 9.79647 113.975 9.93476 113.975 10.2103V14.209C113.975 14.4853 113.838 14.6229 113.562 14.6229H110.942C110.666 14.6229 110.528 14.7605 110.528 15.036V17.6563C110.528 17.9319 110.666 18.0695 110.942 18.0695H113.562C113.838 18.0695 113.975 18.2071 113.975 18.4833V24.6881C113.975 26.7566 114.527 28.4113 115.63 29.3769C116.734 30.4798 118.25 30.8937 120.181 30.8937C121.422 30.8937 122.663 30.6181 124.042 29.9287C124.179 29.7904 124.318 29.6525 124.179 29.5149L123.352 26.7566ZM137.831 14.4835H137.004C134.797 14.4835 133.143 15.3109 131.764 17.1038C131.626 17.2414 131.488 17.1038 131.488 16.9662V15.1733C131.488 14.8977 131.212 14.6222 130.936 14.6222H127.764C127.489 14.6222 127.351 14.7594 127.351 15.0353V30.0656C127.351 30.3419 127.489 30.4795 127.764 30.4795H131.212C131.488 30.4795 131.625 30.3419 131.625 30.0656V25.3775C131.625 20.827 133.556 18.6209 137.279 18.6209H137.83C137.968 18.6209 138.244 18.4833 138.244 18.2071L138.381 14.8981C138.245 14.7598 138.107 14.6222 137.831 14.4835ZM147.621 14.208C145.277 14.208 143.347 15.0353 141.83 16.552C140.313 18.0688 139.486 20.1373 139.486 22.6193C139.486 25.102 140.313 27.0325 141.83 28.5493C143.347 30.0653 145.277 30.8933 147.621 30.8933C149.414 30.8933 150.93 30.4795 152.31 29.6521C153.551 28.9627 154.378 27.8599 155.068 26.4808C155.206 26.2045 155.068 26.0669 154.792 25.929L151.759 25.2396C151.621 25.2396 151.483 25.2396 151.345 25.3772C150.518 26.6183 149.277 27.3081 147.622 27.3081C146.657 27.3081 145.829 27.0325 145.139 26.3431C144.451 25.7914 144.036 24.964 143.761 23.8605C143.761 23.7229 143.761 23.5849 143.898 23.5849H155.619V22.2058C155.481 19.8617 154.654 17.9308 153.137 16.4141C151.62 15.0353 149.828 14.208 147.621 14.208ZM151.069 20.827H144.036C143.899 20.827 143.761 20.6894 143.899 20.5515C144.174 19.7241 144.588 19.1723 145.278 18.6206C145.967 18.0695 146.794 17.9312 147.622 17.9312C148.449 17.9312 149.277 18.2067 149.966 18.6206C150.518 19.0344 151.069 19.7241 151.345 20.5515C151.345 20.6894 151.207 20.827 151.069 20.827ZM162.101 23.7229H173.822V22.3437C173.684 19.9997 172.856 18.0688 171.339 16.552C169.822 15.0353 167.892 14.3456 165.823 14.3456C163.479 14.3456 161.548 15.1729 160.031 16.6903C158.515 18.2064 157.687 20.2749 157.687 22.7576C157.687 25.2396 158.515 27.1694 160.031 28.6862C161.548 30.2029 163.479 31.0309 165.823 31.0309C167.616 31.0309 169.132 30.6178 170.512 29.7897C171.752 29.1003 172.58 27.9975 173.269 26.6184C173.407 26.3421 173.269 26.2045 172.994 26.0666L169.961 25.3772C169.823 25.3772 169.685 25.3772 169.547 25.5148C168.72 26.756 167.479 27.4457 165.824 27.4457C164.859 27.4457 164.031 27.1694 163.341 26.4808C162.652 25.929 162.238 25.1016 161.962 23.998C161.825 23.8608 161.963 23.7229 162.101 23.7229ZM162.101 20.5515C162.377 19.7241 162.79 19.1723 163.48 18.6206C164.169 18.0695 164.996 17.9312 165.824 17.9312C166.651 17.9312 167.479 18.2067 168.168 18.6206C168.72 19.0344 169.271 19.7241 169.547 20.5515C169.547 20.6891 169.547 20.827 169.409 20.827H162.377C162.101 20.827 161.963 20.6894 162.101 20.5515ZM61.5748 18.0691H50.6808C50.4049 18.0691 50.2673 18.2067 50.2673 18.483V21.6543C50.2673 21.9299 50.4049 22.0675 50.6808 22.0675H57.5757C57.7133 22.0675 57.8513 22.2058 57.7133 22.3437C57.2998 23.7222 56.6101 24.8257 55.5069 25.6527C54.4036 26.48 53.0245 26.8932 51.3702 26.8932C49.4393 26.8932 47.785 26.2045 46.4058 24.8247C45.0267 23.4456 44.3373 21.7916 44.3373 19.861C44.3373 17.9305 45.0267 16.2758 46.2683 14.8967C47.5091 13.5169 49.3017 12.8282 51.2323 12.8282C53.7146 12.8282 55.6448 13.7931 57.024 15.5857C57.1619 15.724 57.2998 15.724 57.5757 15.724L60.4716 13.7931C60.6092 13.6555 60.7471 13.38 60.6092 13.2413C59.894 12.0909 58.8973 11.1419 57.7133 10.4838C55.9207 9.38019 53.7143 8.8291 51.5082 8.8291C48.3364 8.8291 45.7165 9.93199 43.648 12.0005C41.4415 14.069 40.4766 16.6886 40.4766 19.8607C40.4766 23.0321 41.5798 25.6524 43.7859 27.7209C45.9924 29.7887 48.6123 30.8923 51.784 30.8923C54.9554 30.8923 57.4378 29.7887 59.5063 27.7209C61.5748 25.6524 62.5397 23.0321 62.5397 19.8607V18.344C61.9883 18.3454 61.8504 18.0691 61.5748 18.0691Z" fill="#3A3A5F"/>
</g>
<defs>
<clipPath id="clip0_996_51672">
<rect width="32.1343" height="40" fill="white"/>
</clipPath>
<clipPath id="clip1_996_51672">
<rect width="133.345" height="22.3394" fill="white" transform="translate(40.4766 8.83008)"/>
</clipPath>
</defs>
</svg>
